<svg xmlns="http://www.w3.org/2000/svg" viewBox="1437 18 35 35">
  <defs>
    <style>
      .cls-1 {
        fill: #4271f0;
      }

      .cls-2 {
        fill: #fff;
      }
    </style>
  </defs>
  <g id="creadoplhin" transform="translate(1437 18)">
    <g id="Fond">
      <path id="Tracé_10" data-name="Tracé 10" class="cls-1" d="M17.5,35h0A17.5,17.5,0,0,1,0,17.5H0A17.5,17.5,0,0,1,17.5,0h0A17.5,17.5,0,0,1,35,17.5h0A17.5,17.5,0,0,1,17.5,35Z"/>
    </g>
    <g id="Logo" transform="translate(6.786 7.875)">
      <g id="Groupe_8" data-name="Groupe 8">
        <path id="Tracé_11" data-name="Tracé 11" class="cls-2" d="M437.428,590.492a9.665,9.665,0,0,0,6.867-2.8l.455-.448-3.462-3.44-.451.448a4.817,4.817,0,0,1-6.78.01c-.052-.052-.1-.108-.157-.164v5.761a9.82,9.82,0,0,0,3.528.637Z" transform="translate(-425.499 -571.242)"/>
        <path id="Tracé_12" data-name="Tracé 12" class="cls-2" d="M437.535,229.869a4.637,4.637,0,0,1,3.391,1.4l.451.441,3.465-3.444-.469-.448a9.952,9.952,0,0,0-6.055-2.775l-.074-.007a9.311,9.311,0,0,0-3.248.245,9.76,9.76,0,0,0-1,.326v5.824c.052-.056.1-.112.161-.168A4.535,4.535,0,0,1,437.535,229.869Z" transform="translate(-425.596 -224.994)"/>
        <path id="Tracé_13" data-name="Tracé 13" class="cls-2" d="M201.272,257a9.675,9.675,0,0,0-4.627,5.369c-1.767,1.382-2.527,3.965-2.769,5.1a.175.175,0,0,0,.238.2l2.139-.557a9.636,9.636,0,0,0,5.019,6.9Z" transform="translate(-193.872 -255.88)"/>
      </g>
    </g>
  </g>
</svg>
