<svg xmlns="http://www.w3.org/2000/svg" viewBox="2127 1086 30 30">
  <defs>
    <style>
      .cls-1 {
        fill: rgba(0,0,0,0.15);
        opacity: 0;
      }

      .cls-2 {
        fill: #fff;
      }
    </style>
  </defs>
  <g id="Groupe_6" data-name="Groupe 6" transform="translate(1726 622)">
    <circle id="Ellipse_1" data-name="Ellipse 1" class="cls-1" cx="15" cy="15" r="15" transform="translate(401 464)"/>
    <g id="worldwide" transform="translate(410.405 473.405)">
      <g id="Groupe_5" data-name="Groupe 5">
        <path id="Tracé_3" data-name="Tracé 3" class="cls-2" d="M6,0a6,6,0,1,0,6,6A6.007,6.007,0,0,0,6,0ZM4.049,1.161A6.082,6.082,0,0,0,3.227,2.81a5.581,5.581,0,0,1-.963-.447A5.236,5.236,0,0,1,4.049,1.161ZM1.755,2.97a6.325,6.325,0,0,0,1.257.593,10.477,10.477,0,0,0-.267,2.046H.8A5.187,5.187,0,0,1,1.755,2.97Zm0,6.061A5.187,5.187,0,0,1,.8,6.391H2.746a10.477,10.477,0,0,0,.267,2.046A6.327,6.327,0,0,0,1.755,9.03Zm.508.607a5.581,5.581,0,0,1,.963-.447,6.082,6.082,0,0,0,.823,1.649A5.235,5.235,0,0,1,2.263,9.637Zm3.345,1.508A3.487,3.487,0,0,1,3.977,8.968a8.616,8.616,0,0,1,1.632-.22Zm0-3.181a9.389,9.389,0,0,0-1.845.251,9.7,9.7,0,0,1-.235-1.824h2.08V7.964Zm0-2.356H3.529a9.7,9.7,0,0,1,.235-1.824,9.389,9.389,0,0,0,1.845.251Zm0-2.356a8.616,8.616,0,0,1-1.632-.22A3.487,3.487,0,0,1,5.609.855Zm4.636-.283A5.187,5.187,0,0,1,11.2,5.609H9.254a10.477,10.477,0,0,0-.267-2.046A6.327,6.327,0,0,0,10.245,2.97Zm-.508-.607a5.581,5.581,0,0,1-.963.447,6.082,6.082,0,0,0-.823-1.649A5.235,5.235,0,0,1,9.737,2.363ZM6.391.855A3.487,3.487,0,0,1,8.023,3.032a8.616,8.616,0,0,1-1.632.22V.855Zm0,3.181a9.389,9.389,0,0,0,1.845-.251,9.7,9.7,0,0,1,.235,1.824H6.391Zm0,2.353h2.08a9.724,9.724,0,0,1-.235,1.827,9.389,9.389,0,0,0-1.845-.251Zm0,4.756v-2.4a8.616,8.616,0,0,1,1.632.22A3.487,3.487,0,0,1,6.391,11.145Zm1.559-.306A6.082,6.082,0,0,0,8.773,9.19a5.582,5.582,0,0,1,.963.447A5.236,5.236,0,0,1,7.951,10.839ZM10.245,9.03a6.325,6.325,0,0,0-1.257-.593,10.5,10.5,0,0,0,.267-2.048H11.2A5.2,5.2,0,0,1,10.245,9.03Z"/>
      </g>
    </g>
  </g>
</svg>
